<svg width="64" height="64" viewBox="0 0 64 64" fill="none" xmlns="http://www.w3.org/2000/svg" xmlns:xlink="http://www.w3.org/1999/xlink">
<path d="M32.001,0.136C14.43,0.136 0.137,14.43 0.137,31.999C0.137,49.569 14.43,63.864 32.001,63.864C49.57,63.864 63.864,49.569 63.864,31.999C63.864,14.43 49.57,0.136 32.001,0.136ZM41.006,20.251C41.006,20.401 40.946,20.546 40.839,20.653C40.733,20.76 40.588,20.819 40.437,20.819L36.815,20.822C34.425,20.822 33.988,21.752 33.988,23.585L33.988,27.388L40.201,27.388C40.364,27.388 40.52,27.458 40.627,27.581C40.735,27.704 40.785,27.867 40.765,28.03L39.88,34.875C39.863,35.012 39.795,35.138 39.692,35.229C39.588,35.321 39.454,35.371 39.316,35.371L33.988,35.371L33.988,52.369C33.988,52.52 33.928,52.664 33.822,52.771C33.715,52.878 33.57,52.938 33.419,52.938L26.351,52.938C26.201,52.938 26.056,52.878 25.949,52.771C25.842,52.664 25.783,52.52 25.783,52.369L25.783,35.371L20.438,35.371C20.287,35.371 20.142,35.311 20.035,35.204C19.929,35.098 19.869,34.953 19.869,34.802L19.869,27.957C19.869,27.806 19.929,27.661 20.035,27.554C20.142,27.448 20.287,27.388 20.438,27.388L25.783,27.388L25.783,22.908C25.783,16.974 29.373,13.289 35.155,13.289C37.641,13.289 39.837,13.474 40.512,13.563C40.648,13.581 40.774,13.648 40.865,13.752C40.956,13.856 41.006,13.989 41.006,14.127L41.006,20.251Z" fill="#E30613" fill-opacity="0.6"/>
</svg>
