<svg width="64" height="64" viewBox="0 0 64 64" fill="none" xmlns="http://www.w3.org/2000/svg" xmlns:xlink="http://www.w3.org/1999/xlink">
<path d="M44.992,22.17C44.714,21.451 44.289,20.798 43.744,20.253C43.198,19.708 42.545,19.284 41.825,19.007C40.835,18.64 39.788,18.446 38.732,18.433C36.975,18.353 36.449,18.333 31.999,18.333C27.549,18.333 27.022,18.353 25.265,18.433C24.208,18.446 23.16,18.64 22.169,19.007C21.45,19.285 20.796,19.71 20.252,20.255C19.707,20.801 19.282,21.454 19.005,22.173C18.638,23.164 18.445,24.21 18.432,25.267C18.352,27.023 18.332,27.55 18.332,32C18.332,36.45 18.352,36.977 18.432,38.733C18.444,39.791 18.638,40.838 19.005,41.83C19.283,42.549 19.708,43.202 20.254,43.747C20.799,44.292 21.453,44.716 22.172,44.993C23.163,45.36 24.209,45.554 25.265,45.567C27.022,45.647 27.549,45.667 31.999,45.667C36.449,45.667 36.975,45.647 38.732,45.567C39.789,45.555 40.837,45.361 41.829,44.993C42.548,44.716 43.201,44.29 43.746,43.745C44.291,43.2 44.715,42.546 44.992,41.827C45.359,40.836 45.553,39.79 45.565,38.733C45.645,36.977 45.665,36.45 45.665,32C45.665,27.55 45.645,27.023 45.565,25.267C45.553,24.209 45.359,23.162 44.992,22.17ZM31.999,40.56C30.306,40.56 28.651,40.058 27.243,39.117C25.835,38.177 24.738,36.84 24.09,35.276C23.442,33.712 23.273,31.991 23.603,30.33C23.933,28.67 24.749,27.144 25.946,25.947C27.143,24.75 28.668,23.935 30.329,23.605C31.989,23.274 33.71,23.444 35.274,24.092C36.839,24.74 38.175,25.837 39.116,27.244C40.057,28.652 40.559,30.307 40.559,32C40.559,34.27 39.657,36.448 38.052,38.053C36.446,39.658 34.269,40.56 31.999,40.56ZM40.895,25.103C40.5,25.103 40.113,24.986 39.784,24.766C39.455,24.547 39.199,24.234 39.048,23.869C38.896,23.503 38.857,23.101 38.934,22.713C39.011,22.325 39.201,21.969 39.481,21.689C39.761,21.41 40.117,21.219 40.505,21.142C40.893,21.065 41.295,21.104 41.661,21.256C42.026,21.407 42.339,21.663 42.558,21.992C42.778,22.321 42.895,22.708 42.895,23.103C42.895,23.634 42.685,24.143 42.31,24.518C41.934,24.893 41.426,25.103 40.895,25.103Z" fill="#E30613" fill-opacity="0.6"/>
<path d="M31.998,37.557C35.067,37.557 37.555,35.069 37.555,32C37.555,28.931 35.067,26.443 31.998,26.443C28.929,26.443 26.441,28.931 26.441,32C26.441,35.069 28.929,37.557 31.998,37.557Z" fill="#E30613" fill-opacity="0.6"/>
<path d="M32,0C25.671,0 19.484,1.877 14.222,5.393C8.959,8.909 4.858,13.907 2.436,19.754C0.014,25.601 -0.62,32.036 0.615,38.243C1.85,44.45 4.897,50.152 9.373,54.627C13.848,59.103 19.55,62.15 25.757,63.385C31.965,64.62 38.399,63.986 44.246,61.564C50.093,59.142 55.091,55.041 58.607,49.778C62.123,44.516 64,38.329 64,32C64,23.513 60.629,15.374 54.627,9.373C48.626,3.371 40.487,0 32,0ZM48.567,38.873C48.538,40.255 48.275,41.622 47.79,42.917C47.362,44.024 46.707,45.029 45.868,45.868C45.029,46.707 44.024,47.362 42.917,47.79C41.622,48.275 40.255,48.538 38.873,48.567C37.093,48.647 36.527,48.667 32,48.667C27.473,48.667 26.907,48.647 25.127,48.567C23.745,48.538 22.378,48.275 21.083,47.79C19.976,47.362 18.971,46.707 18.132,45.868C17.293,45.029 16.638,44.024 16.21,42.917C15.725,41.622 15.462,40.255 15.433,38.873C15.353,37.093 15.333,36.527 15.333,32C15.333,27.473 15.353,26.907 15.433,25.127C15.462,23.745 15.725,22.378 16.21,21.083C16.638,19.976 17.293,18.971 18.132,18.132C18.971,17.293 19.976,16.638 21.083,16.21C22.378,15.725 23.745,15.462 25.127,15.433C26.907,15.353 27.473,15.333 32,15.333C36.527,15.333 37.093,15.353 38.873,15.433C40.255,15.462 41.622,15.725 42.917,16.21C44.024,16.638 45.029,17.293 45.868,18.132C46.707,18.971 47.362,19.976 47.79,21.083C48.275,22.378 48.538,23.745 48.567,25.127C48.647,26.907 48.667,27.473 48.667,32C48.667,36.527 48.647,37.093 48.567,38.873Z" fill="#E30613" fill-opacity="0.6"/>
</svg>
