<svg width="64" height="64" viewBox="0 0 64 64" fill="none" xmlns="http://www.w3.org/2000/svg" xmlns:xlink="http://www.w3.org/1999/xlink">
<path d="M55.797,0L8.203,0C3.696,0 0,3.696 0,8.203L0,55.797C0,60.304 3.696,64 8.203,64L55.797,64C60.304,64 64,60.304 64,55.797L64,8.203C64,3.696 60.304,0 55.797,0ZM48.53,29.771C46.94,36.741 42.043,41.515 35.403,41.515C32.666,41.515 30.09,40.081 29.208,38.456C29.208,38.456 27.739,44.105 27.428,45.198C26.328,49.054 23.101,52.913 22.849,53.227C22.674,53.447 22.286,53.38 22.245,53.086C22.176,52.598 21.354,47.731 22.322,43.763C22.807,41.768 25.584,30.395 25.584,30.395C25.584,30.395 25.183,29.612 24.946,28.343C24.83,27.738 24.771,27.123 24.77,26.507C24.77,22.871 26.953,20.159 29.667,20.159C31.969,20.159 33.083,21.835 33.083,23.843C33.083,25.015 32.68,26.495 32.185,28.086C31.733,29.53 31.209,31.066 30.844,32.548C30.207,35.152 32.195,37.275 34.85,37.275C38.574,37.275 41.356,33.677 42.417,28.757C42.721,27.338 42.883,25.81 42.883,24.226C42.883,18.852 39.144,14.825 32.335,14.825C24.648,14.825 19.851,20.377 19.851,26.578C19.851,27.432 19.957,28.182 20.148,28.854C20.435,29.863 20.91,30.69 21.527,31.39C21.997,31.926 22.058,32.139 21.89,32.754C21.765,33.213 21.49,34.296 21.372,34.727C21.204,35.353 20.687,35.57 20.102,35.344C17.645,34.369 16.096,32.258 15.382,29.645C15.067,28.498 14.912,27.256 14.912,25.967C14.912,18.999 20.987,10.642 33.03,10.64C42.711,10.64 49.086,17.417 49.086,24.694C49.086,26.48 48.894,28.182 48.53,29.771Z" clip-rule="evenodd" fill-rule="evenodd" fill="#E30613" fill-opacity="0.6"/>
</svg>
