<svg width="94" height="84" viewBox="0 0 94 84" fill="none" xmlns="http://www.w3.org/2000/svg" xmlns:xlink="http://www.w3.org/1999/xlink">
<path d="M60.648,41.333L75.297,41.333L75.297,53.052C75.297,59.516 70.042,64.771 63.578,64.771L62.113,64.771C61.536,64.77 60.964,64.882 60.43,65.103C59.896,65.323 59.411,65.647 59.003,66.055C58.594,66.463 58.271,66.948 58.05,67.482C57.83,68.016 57.717,68.588 57.719,69.166L57.719,77.955C57.717,78.532 57.83,79.104 58.05,79.638C58.271,80.172 58.594,80.657 59.003,81.065C59.411,81.473 59.896,81.797 60.43,82.017C60.964,82.238 61.536,82.351 62.113,82.349L63.578,82.349C79.765,82.349 92.875,69.239 92.875,53.052L92.875,9.107C92.875,4.254 88.938,0.318 84.086,0.318L60.648,0.318C55.796,0.318 51.859,4.254 51.859,9.107L51.859,32.544C51.859,37.397 55.796,41.333 60.648,41.333ZM7.914,41.333L22.563,41.333L22.563,53.052C22.563,59.516 17.307,64.771 10.844,64.771L9.379,64.771C8.802,64.77 8.229,64.882 7.696,65.103C7.162,65.323 6.677,65.647 6.268,66.055C5.86,66.463 5.536,66.948 5.316,67.482C5.096,68.016 4.983,68.588 4.984,69.166L4.984,77.955C4.983,78.532 5.096,79.104 5.316,79.638C5.536,80.172 5.86,80.657 6.268,81.065C6.677,81.473 7.162,81.797 7.696,82.017C8.229,82.238 8.802,82.351 9.379,82.349L10.844,82.349C27.03,82.349 40.141,69.239 40.141,53.052L40.141,9.107C40.141,4.254 36.204,0.318 31.352,0.318L7.914,0.318C3.062,0.318 -0.875,4.254 -0.875,9.107L-0.875,32.544C-0.875,37.397 3.062,41.333 7.914,41.333Z" transform="rotate(-360 46 41.333)" fill="#FEA4A4"/>
</svg>
